<svg xmlns="http://www.w3.org/2000/svg" viewBox="0 0 9.92 35.04"><defs><style>.cls-1{fill:#fff;}</style></defs><title>ic-arrow</title><g id="Layer_2" data-name="Layer 2"><g id="Layer_1-2" data-name="Layer 1"><path class="cls-1" d="M7.68,33.59h0l.41-.1a.92.92,0,0,0,.82-.95.89.89,0,0,0-1-.82H7.81l-3.89.71a82.17,82.17,0,0,0,4.9-9.29,16.42,16.42,0,0,0,1-7.22A22.43,22.43,0,0,0,8,9,20.82,20.82,0,0,0,4.64,3.78,19.06,19.06,0,0,0,1.42.86,10.76,10.76,0,0,0,0,0,10.65,10.65,0,0,1,1.34,1,18.78,18.78,0,0,1,4.29,4.07,18.4,18.4,0,0,1,7.12,9.35,23.89,23.89,0,0,1,8.38,16a15.91,15.91,0,0,1-1.27,6.52A72.13,72.13,0,0,1,2.35,31.1l0-4.22A.88.88,0,0,0,1.46,26a.91.91,0,0,0-.86.9L0,33.21c0,.75.1,1.25.61,1.6a1.36,1.36,0,0,0,.93.22C2,35,7.68,33.59,7.68,33.59Z"/></g></g></svg>